# xmcd
#
# Track frame offsets:
#	150
#	18600
#	46500
#	65025
#	84225
#	101325
#	119250
#	140025
#	156825
#	173700
#	191925
#	204600
#	223500
#	240525
#	258525
#
# Disc length: 3467 seconds
#
# Revision: 1
# Processed by: cddbd v1.5.2PL0 Copyright (c) Steve Scherf et al.
# Submitted via: audiograbber 1.83.01
#
DISCID=d40d890f
DTITLE=Keith Urban - QH012
DYEAR=1900
DGENRE=Karaoke
TTITLE0=I Told You So
TTITLE1=Stupid Boy
TTITLE2=Making Memories Of Us
TTITLE3=Tonight I Wanna Cry
TTITLE4=But For The Grace Of God
TTITLE5=You'll Think Of Me
TTITLE6=Better Life
TTITLE7=Wouldn't Wanna Be Me
TTITLE8=Days Go By
TTITLE9=You're My Better Half
TTITLE10=Where The Blacktop Ends
TTITLE11=Once In A Lifetime
TTITLE12=Somebody Like You
TTITLE13=Your Everything
TTITLE14=Data
EXTD=
EXTT0=
EXTT1=
EXTT2=
EXTT3=
EXTT4=
EXTT5=
EXTT6=
EXTT7=
EXTT8=
EXTT9=
EXTT10=
EXTT11=
EXTT12=
EXTT13=
EXTT14=
PLAYORDER=
